# xmcd CD database file
#
# Track frame offsets:
#	150
#	17187
#	34960
#	49470
#	73825
#	105227
#
# Disc length: 1907 seconds
#
# Revision: 0
# Processed by: cddbd v1.4PL0 Copyright (c) Steve Scherf et al.
# Submitted via: CDex 1.50beta10
#
DISCID=50077106
DTITLE=Various Artist - Yves Saint Laurent - Jazz  - Various Artists - Live Jazz
DYEAR=1998
DGENRE=Jazz
TTITLE0=Live Jazz-Dimitri From Paris
TTITLE1=Dikalo-Manu Dibango
TTITLE2=Have A Good Time-Brand New Heavies
TTITLE3=I'm Thinking About Your Body-Us3
TTITLE4=Underground-Courtney Pine
TTITLE5=Jazz Master-Alex Reece
EXTD=YEAR: 1998
EXTT0=
EXTT1=
EXTT2=
EXTT3=
EXTT4=
EXTT5=
PLAYORDER=
